<svg width="7" height="12" viewBox="0 0 7 12" fill="none" xmlns="http://www.w3.org/2000/svg">
<path d="M4.27 5.00667C5.565 5.31 7 5.75333 7 7.52667C7 8.85667 6.28833 9.76667 4.69 10.0117V11.1667H3.05667V10.0117C2.00667 9.84833 1.12 9.335 0.618333 8.58833L1.79667 7.53833C2.36833 8.20333 3.10333 8.47167 3.885 8.47167C4.85333 8.47167 5.30833 8.26167 5.30833 7.64333C5.30833 7.11833 5.02833 6.885 3.48833 6.535C1.98333 6.185 0.933334 5.70667 0.933334 4.09667C0.933334 2.87167 1.83167 2.06667 3.05667 1.83333V0.666666H4.69V1.845C5.55333 2.00833 6.23 2.42833 6.825 3.04667L5.64667 4.19C5.12167 3.65333 4.53833 3.35 3.79167 3.35C2.91667 3.35 2.625 3.665 2.625 4.02667C2.625 4.54 2.975 4.70333 4.27 5.00667Z" fill="#BFBFBF"/>
</svg>
